<svg xmlns="http://www.w3.org/2000/svg" viewBox="0 0 32 32">
  <!-- Background -->
  <circle cx="16" cy="16" r="14" fill="#3b82f6"/>
  
  <!-- Drake/Dragon Head -->
  <path d="M16 6c-2 0-4 1-5 2.5-.5.8-.8 1.7-1 2.5-.2.8-.2 1.5 0 2 .2.5.5.8 1 1 .5.2 1 0 1.5-.2.5-.2 1-.5 1.5-1 .5-.5 1-1 1.5-1.5.5-.5 1-.8 1.5-1 .5-.2 1-.2 1.5 0 .5.2.8.5 1 1 .2.5.2 1 0 1.5-.2.5-.5 1-1 1.5-.5.5-1 1-1.5 1.5" 
        fill="none" stroke="white" stroke-width="1.5" stroke-linecap="round" stroke-linejoin="round"/>
  
  <!-- Musical Note -->
  <path d="M20 10v6.5c0 1.1-.9 2-2 2h-1c-1.1 0-2-.9-2-2s.9-2 2-2h1V10l2-1" 
        fill="white" stroke="white" stroke-width="0.5"/>
  
  <!-- Calendar Lines -->
  <path d="M12 22h8M12 19h8" stroke="white" stroke-width="1.5" stroke-linecap="round"/>
</svg> 