<svg xmlns="http://www.w3.org/2000/svg" viewBox="0 0 32 32">
  <!-- Background -->
  <circle cx="16" cy="16" r="14" fill="#3b82f6"/>
  
  <!-- Drake Head (Simplified) -->
  <path d="M12 10c0 0 2-2 4-2s4 2 4 2c1 1 2 2 2 3s-1 2-2 2c-1 0-2-1-3-2c-1-1-2-1-2-1s-1 0-2 1c-1 1-2 2-3 2c-1 0-2-1-2-2s1-2 2-3c0 0 2-2 4-2" 
        fill="#3b82f6" stroke="white" stroke-width="1.5" stroke-linecap="round" stroke-linejoin="round"/>
  
  <!-- Eye -->
  <circle cx="14" cy="11" r="1" fill="white"/>
  
  <!-- Musical Note (Larger) -->
  <path d="M20 8v8.5c0 1.1-.9 2-2 2h-1c-1.1 0-2-.9-2-2s.9-2 2-2h1V8l2-1" 
        fill="white" stroke="white" stroke-width="1"/>
  
  <!-- Calendar Lines -->
  <path d="M10 22h12M10 19h12" stroke="white" stroke-width="2" stroke-linecap="round"/>
</svg> 